<svg xmlns="http://www.w3.org/2000/svg" width="168" height="34" viewBox="0 0 168 34" fill="none">
  <path d="M26.3036 14.0402L20.9152 8.49999L20.8393 8.42409L13.0982 0.531236C12.7947 0.227665 12.3393 0 11.8839 0C11.4286 0 10.9732 0.151767 10.5938 0.455339L1.10715 9.94195C0.803574 10.3214 0.575898 10.8527 0.575898 11.308L0.5 22.5402C0.5 22.9955 0.803574 23.4509 1.10715 23.7545L10.6696 33.4687C10.9732 33.7723 11.4286 34 11.8839 34C11.8839 34 11.9598 34 12.0357 34C12.2634 34 12.3393 33.9241 12.567 33.8482C13.25 33.5446 13.7813 32.9375 13.8572 32.2545L13.933 25.9554V16.1652L18.7902 11.308L23.5714 16.2411L23.6473 27.7009L19.0179 22.9955C18.7143 22.692 18.183 22.4643 17.7277 22.4643C17.2723 22.4643 16.817 22.6161 16.5134 22.9955C15.8304 23.6786 15.7545 24.8929 16.4375 25.5759L23.875 33.1652C24.4063 33.8482 25.3929 34.0759 26.1518 33.6205C26.1518 33.6205 26.2277 33.6205 26.2277 33.5446C26.2277 33.5446 26.3036 33.5446 26.3036 33.4687C26.3036 33.4687 26.3036 33.4687 26.3795 33.4687C26.4554 33.3928 26.4554 33.3929 26.5313 33.317C26.8348 33.0893 27.0625 32.6339 27.1384 32.2545V32.1786C27.1384 32.1027 27.1384 32.1027 27.1384 32.0268L26.9866 15.1027C27.1384 14.875 26.6071 14.4196 26.3036 14.0402ZM10.8214 14.4955C10.5179 14.7991 10.3661 15.4062 10.3661 15.8616V25.9554L10.2902 28.0045L4.14286 21.7812L4.06696 11.7634L11.6563 4.17411L16.3616 9.03125L10.8214 14.4955Z" fill="white"/>
  <path fill-rule="evenodd" clip-rule="evenodd" d="M107.054 12.7501V21.2501C107.054 24.7412 109.027 26.7144 113.732 26.7144C115.174 26.7144 116.692 26.5626 118.058 26.259C118.514 26.1831 118.741 25.7278 118.741 25.3483L118.589 23.9064C118.514 23.451 118.21 23.1474 117.755 23.1474H117.603C116.313 23.3751 114.947 23.451 113.884 23.451C111.456 23.451 110.621 22.6162 110.621 20.5671V13.2814C110.621 11.2323 111.38 10.3974 113.884 10.3974C114.947 10.3974 116.313 10.5492 117.603 10.701H117.755C118.134 10.701 118.514 10.3974 118.589 9.94206L118.741 8.5001C118.817 8.04474 118.514 7.66529 118.058 7.5894C116.692 7.28582 115.174 7.13403 113.732 7.13403C109.027 7.28582 107.054 9.33492 107.054 12.7501ZM76.1646 20.7191V13.2816C76.1646 11.4601 77.0753 10.3976 79.7315 10.3976C82.3878 10.3976 83.2985 11.4601 83.2985 13.2816V20.7191C83.2985 22.5405 82.3878 23.603 79.7315 23.603C77.0753 23.603 76.1646 22.5405 76.1646 20.7191ZM72.5976 13.1298V20.9467C72.5976 24.0583 74.419 26.7905 79.6556 26.7905C84.9681 26.7905 86.7137 24.1342 86.7137 20.9467V13.1298C86.7137 10.0182 84.8922 7.28601 79.6556 7.28601C74.419 7.28601 72.5976 9.94227 72.5976 13.1298ZM44.5943 18.3664C40.0408 17.3039 39.4336 16.4691 39.4336 12.4468C39.4336 9.03161 41.0274 7.28607 45.6568 7.36196C47.0988 7.36196 48.7684 7.51375 50.3622 7.81732C50.8176 7.89321 51.1211 8.27269 51.0452 8.72804L50.8934 10.0941C50.8176 10.5495 50.4381 10.853 50.0586 10.853H49.9068C48.5408 10.6254 47.0988 10.4736 45.7327 10.4736C43.3801 10.4736 42.9247 10.9289 42.9247 12.5986C42.9247 14.7995 42.9247 14.8753 46.1881 15.6343C51.2729 16.8486 51.5006 17.6834 51.5006 21.478C51.5006 25.045 50.4381 26.8664 44.8979 26.8664C43.0765 26.8664 41.1033 26.487 39.7372 26.0316C39.3577 25.8798 39.1301 25.4245 39.2059 25.045L39.5095 23.8307C39.5854 23.4513 39.9649 23.1477 40.3443 23.1477H40.572C42.0899 23.5272 43.5318 23.7548 45.0497 23.7548C47.5542 23.7548 48.0095 23.2236 48.0095 21.4021C48.0095 19.2771 47.9336 19.1254 44.5943 18.3664ZM65.541 8.42367C65.541 7.96832 65.9205 7.58887 66.3759 7.58887H68.2732C68.7285 7.58887 69.108 7.96832 69.108 8.42367V25.6514C69.108 26.1067 68.7285 26.4862 68.2732 26.4862H66.3759C65.9205 26.4862 65.541 26.1067 65.541 25.6514V19.3523C65.541 18.8969 65.1616 18.5174 64.7062 18.5174H59.4696C59.0143 18.5174 58.6348 18.8969 58.6348 19.3523V25.6514C58.6348 26.1067 58.2553 26.4862 57.8 26.4862H55.9026C55.4473 26.4862 55.0678 26.1067 55.0678 25.6514V8.42367C55.0678 7.96832 55.4473 7.58887 55.9026 7.58887H57.8C58.2553 7.58887 58.6348 7.96832 58.6348 8.42367V14.4951C58.6348 14.9505 59.0143 15.3299 59.4696 15.3299H64.7062C65.1616 15.3299 65.541 14.9505 65.541 14.4951V8.42367ZM93.8492 11.5353V16.3166C93.8492 16.8478 94.2286 17.2272 94.684 17.1514H97.4161C99.3893 17.1514 99.9965 16.4683 99.9965 14.8746V12.9772C99.9965 11.3835 99.3893 10.7005 97.4161 10.7005H94.684C94.2286 10.7005 93.8492 11.0799 93.8492 11.5353ZM90.2822 8.42367C90.2822 7.96832 90.6617 7.58887 91.117 7.58887V7.66474H97.5679C101.894 7.66474 103.488 9.41029 103.488 12.7496V15.3299C103.488 18.5933 101.742 20.4148 97.4161 20.4148H94.684C94.2286 20.4148 93.8492 20.7942 93.8492 21.2496V25.6514C93.8492 26.1067 93.4697 26.4862 93.0143 26.4862H91.117C90.6617 26.4862 90.2822 26.1067 90.2822 25.6514V8.42367ZM122.004 8.42367C122.004 7.96832 122.384 7.58887 122.839 7.58887H124.736C125.192 7.58887 125.571 7.96832 125.571 8.42367V22.4639C125.571 22.9192 125.951 23.2987 126.406 23.2987H132.402C132.857 23.2987 133.236 23.6782 133.236 24.1335V25.6514C133.236 26.1067 132.857 26.4862 132.402 26.4862H122.839C122.384 26.4862 122.004 26.1067 122.004 25.6514V8.42367ZM147.96 7.4386C147.504 7.4386 147.125 7.81807 147.125 8.27343V20.5681C147.125 22.3895 146.29 23.452 143.786 23.452C141.281 23.452 140.446 22.3895 140.446 20.5681V8.27343C140.446 7.81807 140.067 7.4386 139.611 7.4386H137.714C137.259 7.4386 136.879 7.81807 136.879 8.27343V20.8716C136.879 23.8315 138.549 26.6395 143.786 26.6395C149.022 26.6395 150.692 23.8315 150.692 20.8716V8.27343C150.692 7.81807 150.312 7.4386 149.857 7.4386H147.96ZM157.751 19.2005V22.6915C157.751 23.1469 158.13 23.5264 158.585 23.5264H161.393C162.987 23.5264 163.67 23.071 163.67 21.7049V20.263C163.67 18.9728 163.139 18.3656 161.697 18.3656H158.585C158.13 18.3656 157.751 18.7451 157.751 19.2005ZM157.751 11.3835V14.6469C157.751 15.1023 158.13 15.4817 158.585 15.4817H161.09C162.456 15.4817 162.987 14.8746 162.987 13.7362V12.0665C162.987 11.004 162.456 10.5487 161.166 10.5487H158.585C158.13 10.5487 157.751 10.9282 157.751 11.3835ZM154.184 8.42367C154.184 7.96832 154.563 7.58887 155.018 7.58887H161.545C165.112 7.58887 166.554 9.03082 166.554 11.6112V13.5844C166.554 14.571 166.326 15.3299 165.719 15.8612C165.264 16.2407 165.34 16.8478 165.795 17.1514C166.63 17.7585 167.161 18.821 167.161 20.1112V22.1603C167.161 24.8165 165.492 26.4862 162.076 26.4862H155.018C154.563 26.4862 154.184 26.1067 154.184 25.6514V8.42367Z" fill="white"/>
</svg>